# xmcd
#
# Track frame offsets: 
#        150
#        17064
#        31974
#        49946
#        63686
#        82628
#        99319
#        115689
#        134876
#        158293
#        180765
#        196997
#        222667
#        237675
#
# Disc length: 3417 seconds
#
# Revision: 1
# Processed by: cddbd v1.5.2PL0 Copyright (c) Steve Scherf et al.
# Submitted via: ExactAudioCopyFreeDBPlugin 1.0
#
DISCID=b80d570e
DTITLE=Faith Hill - There You'll Be
DYEAR=2001
DGENRE=Country
TTITLE0=There You'll Be
TTITLE1=This Kiss
TTITLE2=Breathe (Tin Tin Out Radio Mix)
TTITLE3=The Way You Love Me (Love to Infinity Remix)
TTITLE4=Let Me Let Go
TTITLE5=Piece of My Heart
TTITLE6=If My Heart Had Wings
TTITLE7=There Will Come a Day
TTITLE8=Love Will Always Win
TTITLE9=My Wild Frontier
TTITLE10=You Give Me Love
TTITLE11=Somewhere Down The Road
TTITLE12=Over The Rainbow
TTITLE13=Breathe
EXTD=
EXTT0=
EXTT1=
EXTT2=
EXTT3=
EXTT4=
EXTT5=
EXTT6=
EXTT7=
EXTT8=
EXTT9=
EXTT10=
EXTT11=
EXTT12=
EXTT13=
PLAYORDER=
